<svg width="512" height="512" xmlns="http://www.w3.org/2000/svg">

 <g>
  <title>background</title>
  <rect fill="none" id="canvas_background" height="402" width="582" y="-1" x="-1"/>
 </g>
 <g>
  <title>Layer 1</title>
  <path id="svg_2" fill-rule="evenodd" fill="#6B9F69" d="m368.003,117.456c-44.426,0 -68.012,22.217 -102.915,21.764c-34.912,0.453 -58.49,-21.764 -102.922,-21.764c-35.364,0 -80.257,21.764 -100.657,53.511c-37.629,58.048 -34.005,121.088 -18.135,186.378c17.229,69.399 77.984,154.655 126.047,154.655c39.441,0 57.131,-21.325 95.667,-21.325c38.526,0 55.756,21.325 94.76,21.325c44.425,0 97.472,-73.023 120.152,-137.876c-43.534,-17.232 -73.01,-60.306 -73.01,-106.113c0,-45.346 23.133,-80.264 58.498,-100.215c-21.759,-29.482 -63.48,-50.34 -97.485,-50.34l0,0zm-11.794,-117.456c-63.918,6.804 -111.521,60.313 -107.444,121.081c63.926,-6.35 111.083,-60.314 107.444,-121.081l0,0z" clip-rule="evenodd"/>
 </g>
</svg>
