<?xml version="1.0"?>
<svg xmlns="http://www.w3.org/2000/svg" xmlns:xlink="http://www.w3.org/1999/xlink" version="1.1" viewBox="0 0 224 224" width="50px" height="50px"><g fill="none" fill-rule="nonzero" stroke="none" stroke-width="1" stroke-linecap="butt" stroke-linejoin="miter" stroke-miterlimit="10" stroke-dasharray="" stroke-dashoffset="0" font-family="none" font-weight="none" font-size="none" text-anchor="none" style="mix-blend-mode: normal"><path d="M0,224v-224h224v224z" fill="none"/><g fill="#3E2710"><path d="M177.33333,28h-130.66667c-10.31333,0 -18.66667,8.35333 -18.66667,18.66667v130.66667c0,10.31333 8.35333,18.66667 18.66667,18.66667h130.66667c10.31333,0 18.66667,-8.35333 18.66667,-18.66667v-130.66667c0,-10.31333 -8.35333,-18.66667 -18.66667,-18.66667zM84,158.66667h-23.548v-65.33333h23.548zM71.81067,81.35867c-7.196,0 -12.00267,-4.79733 -12.00267,-11.2c0,-6.40267 4.79733,-11.2 12.796,-11.2c7.196,0 12.00267,4.79733 12.00267,11.2c0,6.40267 -4.79733,11.2 -12.796,11.2zM168,158.66667h-22.792v-35.70933c0,-9.87467 -6.076,-12.152 -8.35333,-12.152c-2.27733,0 -9.87467,1.52133 -9.87467,12.152c0,1.52133 0,35.70933 0,35.70933h-23.548v-65.33333h23.548v9.11867c3.03333,-5.32 9.10933,-9.11867 20.50533,-9.11867c11.396,0 20.51467,9.11867 20.51467,29.624z"/></g></g></svg>
