<?xml version="1.0"?>
<svg xmlns="http://www.w3.org/2000/svg" xmlns:xlink="http://www.w3.org/1999/xlink" version="1.1" viewBox="0 0 224 224" width="24px" height="24px"><g fill="none" fill-rule="nonzero" stroke="none" stroke-width="1" stroke-linecap="butt" stroke-linejoin="miter" stroke-miterlimit="10" stroke-dasharray="" stroke-dashoffset="0" font-family="none" font-weight="none" font-size="none" text-anchor="none" style="mix-blend-mode: normal"><path d="M0,224v-224h224v224z" fill="none"/><g fill="#3E2710"><g id="surface1"><path d="M37.91667,37.33333c0,0 -4.95833,8.64062 -4.95833,23.33333c0,9.77083 2.1875,15.16667 3.79167,17.79167c-11.22917,11.70312 -18.08333,27.45312 -18.08333,47.83333c0,52.20833 32.92188,69.70833 93.33333,69.70833c60.41146,0 93.33333,-17.5 93.33333,-69.70833c0,-21.10938 -6.48958,-36.93229 -17.20833,-48.41667c2.66146,-7.98438 5.72396,-23.07812 -1.75,-40.54167c-22.27604,0 -41.05208,17.17188 -41.70833,17.79167c-10.39062,-2.29688 -21.36458,-3.5 -32.66667,-3.5c-11.55729,0 -22.93229,1.45833 -33.54167,4.08333c-14.91146,-14.83854 -32.84896,-18.375 -40.54167,-18.375zM142.04167,112c5.61459,-0.07291 10.90104,0.51042 15.45833,2.04167c12.17709,4.11979 19.83333,16.11459 19.83333,29.45833c-0.03646,37.00521 -18.70312,43.16667 -66.5,43.16667c-35.54688,0 -64.45833,-6.67188 -64.45833,-42c0,-13.48958 7,-21.21875 11.95833,-25.95833c10.90104,-10.42708 28.07292,-5.25 52.5,-5.25c11.08333,0 21.83854,-1.34896 31.20833,-1.45833zM74.66667,130.66667c-5.14062,0 -9.33333,6.27083 -9.33333,14c0,7.72917 4.19271,14 9.33333,14c5.14062,0 9.33333,-6.27083 9.33333,-14c0,-7.72917 -4.19271,-14 -9.33333,-14zM149.33333,130.66667c-5.14062,0 -9.33333,6.27083 -9.33333,14c0,7.72917 4.19271,14 9.33333,14c5.14062,0 9.33333,-6.27083 9.33333,-14c0,-7.72917 -4.19271,-14 -9.33333,-14z"/></g></g></g></svg>
